<svg width="552" height="147" xmlns="http://www.w3.org/2000/svg">
 <!-- Created with Method Draw - http://github.com/duopixel/Method-Draw/ -->
 <g>
  <title>background</title>
  <rect fill="#fff" id="canvas_background" height="149" width="554" y="-1" x="-1"/>
  <g display="none" overflow="visible" y="0" x="0" height="100%" width="100%" id="canvasGrid">
   <rect fill="url(#gridpattern)" stroke-width="0" y="0" x="0" height="100%" width="100%"/>
  </g>
 </g>
 <g>
  <title>Layer 1</title>
  <text stroke="#000" transform="matrix(3.4673361778259277,0,0,5.1818443139944295,-144.33916640281677,-862.2385391508388) " xml:space="preserve" text-anchor="start" font-family="Helvetica, Arial, sans-serif" font-size="24" id="svg_1" y="189.29793" x="80.689934" stroke-width="0" fill="#000000">Jobs Portal</text>
  <path stroke="#000" id="svg_2" d="m84.592139,90.668564c-4.753925,-2.546562 -6.652135,-9.54539 -6.652135,-9.54539s-2.141786,1.585277 -2.141786,-2.86699s2.141786,2.86699 4.283572,-14.323706c0,0 5.938206,-2.231755 4.753925,-20.687299l-1.427857,0c0,0 3.565443,-19.731636 0,-26.415657c-3.569643,-6.684021 -4.993301,-11.136288 -12.842316,-14.323706s-4.989101,-2.552183 -10.69633,-2.226133c-5.707229,0.320428 -10.465353,4.452267 -10.465353,6.6784c0,0 -3.565443,0.320428 -4.989101,2.231755c-1.427857,1.911327 -3.804819,10.81586 -3.804819,13.047614s1.188481,17.190696 2.376962,20.372492l-1.415258,0.635235c-1.188481,18.455544 4.753925,20.687299 4.753925,20.687299c2.137586,17.190696 4.279372,9.871439 4.279372,14.323706s-2.141786,2.86699 -2.141786,2.86699s-1.89821,6.998828 -6.652135,9.54539c-4.753925,2.54094 -31.144085,16.223789 -33.290071,19.090779c-2.145985,2.872611 -1.90241,16.235032 -1.90241,16.235032l113.166082,0c0,0 0.247775,-13.362421 -1.89821,-16.235032c-2.150185,-2.86699 -28.540346,-16.549839 -33.29427,-19.090779zm-52.368762,-0.966906c-0.415758,-1.011879 -0.621538,-1.74268 -0.621538,-1.74268s-1.814219,1.34355 -1.814219,-2.428509s1.814219,2.428509 3.628437,-12.136923c0,0 5.035296,-1.88884 4.027397,-17.53361l-1.209479,0c0,0 0.60054,-3.322335 0.9953,-7.499146c-0.016798,-1.731437 0.025197,-3.575305 0.155384,-5.599062l0.159584,-2.39478c-0.088191,-2.765802 -0.449355,-5.278634 -1.310269,-6.892019c-3.023698,-5.660899 -4.233177,-9.43858 -10.881112,-12.136923c-6.647935,-2.698343 -4.233177,-2.164296 -9.066893,-1.88884c-4.837916,0.269834 -8.869513,3.772059 -8.869513,5.666521c0,0 -3.023698,0.269834 -4.233177,1.88884c-1.138086,1.52344 -2.960704,8.218704 -3.179082,10.596619l0,1.579655c0.19738,3.670871 1.083492,13.767173 1.969603,16.145088l-1.20108,0.539669c-1.0037,15.64477 4.027397,17.53361 4.027397,17.53361c1.814219,14.565433 3.628437,8.364864 3.628437,12.136923s-1.814219,2.428509 -1.814219,2.428509s-1.608439,5.941977 -5.640036,8.089408c-0.256174,0.134917 -0.583742,0.314807 -0.974303,0.517182l0,29.423186l2.414758,0c-0.121788,-7.184339 0.323368,-16.454273 3.132887,-20.203846c1.49505,-1.99565 6.39596,-5.278634 26.675732,-16.088872zm93.776621,-50.908744c-0.167983,-2.124945 -0.533347,-4.019407 -1.226277,-5.317985c-3.019498,-5.666521 -4.233177,-9.43858 -10.876912,-12.136923c-6.652135,-2.698343 -4.233177,-2.164296 -9.071093,-1.88884c-4.833717,0.269834 -8.865313,3.772059 -8.865313,5.666521c0,0 -3.019498,0.269834 -4.233177,1.88884c-1.138086,1.529061 -2.977502,8.27492 -3.183282,10.630348l0.138586,0l0.335966,5.132474c0.083992,1.298578 0.092391,2.450995 0.113389,3.625899c0.377962,3.743951 0.881912,7.589091 1.385861,8.932641l-1.20108,0.539669c-1.0037,15.64477 4.031597,17.53361 4.031597,17.53361c1.814219,14.565433 3.624238,8.364864 3.624238,12.136923s-1.814219,2.428509 -1.814219,2.428509s-0.222578,0.79826 -0.684532,1.900083c20.031997,10.680942 24.890911,13.941441 26.369163,15.931469c2.813719,3.749573 3.254674,13.013885 3.132887,20.203846l2.015798,0l0,-29.827937c-0.067193,-0.033729 -0.159584,-0.084323 -0.218378,-0.118053c-4.027397,-2.153053 -5.640036,-8.089408 -5.640036,-8.089408s-1.818418,1.34355 -1.818418,-2.428509s1.818418,2.428509 3.628437,-12.136923c0,0 3.376462,-1.287335 4.044196,-10.349271l0,-6.89764c-0.0042,-0.101188 -0.0042,-0.185511 -0.012599,-0.286699l-1.213679,0c0,0 0.90291,-5.003178 1.226277,-10.461702l0,-6.610941l0.012599,0z" stroke-opacity="null" stroke-width="0" fill="#0000ff"/>
 </g>
</svg>